<?xml version="1.0" encoding="utf-8"?>
<!-- Generator: Adobe Illustrator 21.0.2, SVG Export Plug-In . SVG Version: 6.00 Build 0)  -->
<svg version="1.1" id="Layer_1" xmlns="http://www.w3.org/2000/svg" xmlns:xlink="http://www.w3.org/1999/xlink" x="0px" y="0px"
	 viewBox="0 0 300 300" style="enable-background:new 0 0 300 300;" xml:space="preserve">
<style type="text/css">
	.st0{fill:#39B54A;}
	.st1{fill:#FFFFFF;}
</style>
<g>
	<path class="st0" d="M88.9,186v54.6c0,6.2-1.3,11.5-4,16.1c-2.6,4.5-6.4,8-11.3,10.3c-4.9,2.4-10.8,3.6-17.5,3.6
		c-10.2,0-18.2-2.6-24-7.9c-5.8-5.3-8.8-12.5-8.9-21.7v-55h20.2v55.4c0.2,9.1,4.5,13.7,12.7,13.7c4.2,0,7.3-1.1,9.5-3.4
		c2.1-2.3,3.2-6,3.2-11.2V186H88.9z"/>
	<path class="st0" d="M171.1,269.4h-20l-29.6-51.9v51.9h-20.1V186h20.1l29.5,51.9V186h20.1V269.4z"/>
	<path class="st0" d="M205.2,269.4h-20.1V186h20.1V269.4z"/>
	<path class="st0" d="M239.3,241.1v28.3h-20.1V186h33.3c6.4,0,12,1.2,16.9,3.5c4.9,2.3,8.7,5.7,11.4,10c2.7,4.3,4,9.3,4,14.8
		c0,8.1-2.9,14.6-8.7,19.5s-13.8,7.3-24,7.3H239.3z M239.3,225.6h13.2c3.9,0,6.9-1,8.9-2.9c2-1.9,3.1-4.7,3.1-8.3
		c0-3.9-1.1-7-3.2-9.3c-2.1-2.3-5-3.5-8.6-3.6h-13.4V225.6z"/>
</g>
<g>
	<g>
		<path class="st0" d="M275.1,166.7c12.6-13.7,20.4-32.1,20.4-52.2S287.7,76,275,62.2V21.9l-35.7,18.4c-6.7-1.9-13.7-2.9-21-2.9
			c-26.8,0-50.5,13.8-64.3,34.7c-13.8-20.9-37.5-34.7-64.3-34.7c-7.3,0-14.3,1-21,2.9L33,21.9v40.3c-12.7,13.7-20.5,32.1-20.5,52.3
			s7.8,38.5,20.5,52.3"/>
		<path class="st1" d="M218.4,62.8c28.4,0,51.6,23.1,51.6,51.6S246.8,166,218.4,166s-51.6-23.1-51.6-51.6S190,62.8,218.4,62.8z"/>
		<path class="st1" d="M141.2,114.4c0,28.4-23.1,51.6-51.6,51.6s-51.6-23.1-51.6-51.6s23.1-51.6,51.6-51.6
			C118.1,62.8,141.2,86,141.2,114.4z"/>
		<path class="st0" d="M63.9,114.4c0-14.2,11.5-25.8,25.8-25.8c14.2,0,25.8,11.5,25.8,25.8c0,14.2-11.5,25.8-25.8,25.8
			C75.4,140.2,63.9,128.6,63.9,114.4z"/>
		<path class="st0" d="M192.6,114.4c0-14.2,11.5-25.8,25.8-25.8c14.2,0,25.8,11.5,25.8,25.8c0,14.2-11.5,25.8-25.8,25.8
			C204.2,140.2,192.6,128.6,192.6,114.4z"/>
	</g>
	<path class="st0" d="M154,152.8c3,4.5,6.6,8.7,10.7,12.3L154,175.7l-10.7-10.7C147.4,161.4,151,157.3,154,152.8z"/>
</g>
</svg>
